# xmcd
#
# Track frame offsets:
#	150
#	21439
#	41266
#	61093
#	77614
#	93712
#	115001
#	134828
#	154655
#	171176
#
# Disc length: 2496 seconds
#
# Revision: 1
# Processed by: cddbd v1.5.1PL2 Copyright (c) Steve Scherf et al.
# Submitted via: audiograbber 1.83.01
#
DISCID=7c09be0a
DTITLE=variou - bc40713
DYEAR=1900
DGENRE=Country
TTITLE0=McGraw, Tim - Watch The Wind Blow By
TTITLE1=McGraw, Tim - She's My Kind Of Rain
TTITLE2=Keith, Toby - American Soldier
TTITLE3=Keith, Toby - Courtesy Of The Red White and Blue
TTITLE4=Keith, Toby and Nelson, Willie - Beer For My Horses
TTITLE5=McGraw, Tim - Watch The Wind Blow By (Vocals)
TTITLE6=McGraw, Tim - She's My Kind Of Rain (Vocals)
TTITLE7=Keith, Toby - American Soldier (Vocals)
TTITLE8=Keith, Toby - Courtesy Of The Red White and Blue (Vocals)
TTITLE9=Keith, Toby and Nelson, Willie - Beer For My Horses (Vocals)
EXTD=
EXTT0=
EXTT1=
EXTT2=
EXTT3=
EXTT4=
EXTT5=
EXTT6=
EXTT7=
EXTT8=
EXTT9=
PLAYORDER=
